<?xml version="1.0" encoding="iso-8859-1"?>
<!-- Generator: Adobe Illustrator 19.0.0, SVG Export Plug-In . SVG Version: 6.00 Build 0)  -->
<svg version="1.1" id="Capa_1" xmlns="http://www.w3.org/2000/svg" xmlns:xlink="http://www.w3.org/1999/xlink" x="0px" y="0px"
	 viewBox="0 0 512 512" style="enable-background:new 0 0 512 512;" xml:space="preserve">
<g>
	<polyline style="fill:#EA3836;" points="185.379,423.724 114.759,423.724 114.759,158.897 185.379,158.897 185.379,423.724 	"/>
	<polyline style="fill:#EA3836;" points="379.586,423.724 379.586,70.621 459.034,70.621 459.034,423.724 	"/>
</g>
<g>
	<rect x="308.966" y="141.241" style="fill:#FFD33F;" width="70.621" height="282.483"/>
	<rect x="44.138" y="52.966" style="fill:#FFD33F;" width="70.621" height="370.759"/>
</g>
<rect x="185.379" y="123.586" style="fill:#91CECE;" width="61.793" height="300.138"/>
<rect x="247.172" y="300.138" style="fill:#383856;" width="61.793" height="88.276"/>
<g>
	<path style="fill:#D62121;" d="M114.759,383.665v40.06h70.621v-57.953C161.792,372.648,138.072,378.571,114.759,383.665z"/>
	<path style="fill:#D62121;" d="M379.586,273.796v149.928h79.448V175.21C441.256,214.228,413.934,248.135,379.586,273.796z"/>
</g>
<g>
	<path style="fill:#FFAC3E;" d="M308.966,318.076v105.649h70.621V273.796C357.526,290.798,333.877,305.629,308.966,318.076z"/>
	<path style="fill:#FFAC3E;" d="M44.138,397.003v26.721h70.621v-40.06C90.562,388.952,66.825,393.348,44.138,397.003z"/>
</g>
<path style="fill:#83B2B7;" d="M185.379,365.771v57.953h61.793v-78.566C226.931,352.839,206.212,359.689,185.379,365.771z"/>
<path style="fill:#202033;" d="M247.172,345.159v43.255h61.793v-70.338C288.865,328.21,268.244,337.249,247.172,345.159z"/>
<rect x="247.172" y="70.621" style="fill:#EA3836;" width="61.793" height="229.517"/>
<rect y="423.724" style="fill:#874D1B;" width="512" height="35.31"/>
<rect x="335.448" y="185.379" style="fill:#FFFFFF;" width="17.655" height="194.207"/>
<g>
	<rect x="247.172" y="70.621" style="fill:#383856;" width="61.793" height="32.371"/>
	<rect x="44.138" y="97.103" style="fill:#383856;" width="70.621" height="35.31"/>
</g>
<rect x="141.241" y="238.345" style="fill:#FFFFFF;" width="17.655" height="105.931"/>
<rect x="114.759" y="158.897" style="fill:#383856;" width="70.621" height="35.31"/>
<rect x="114.759" y="388.414" style="fill:#202033;" width="70.621" height="35.31"/>
<rect x="247.172" y="388.414" style="fill:#D62121;" width="61.793" height="35.31"/>
<rect x="379.586" y="114.759" style="fill:#383856;" width="79.448" height="35.31"/>
<rect x="379.586" y="344.276" style="fill:#202033;" width="79.448" height="35.31"/>
<path style="fill:#6B3713;" d="M484.308,423.724c-36.546,35.31-113.549,35.31-113.549,35.31H512v-35.31H484.308z"/>
<g>
</g>
<g>
</g>
<g>
</g>
<g>
</g>
<g>
</g>
<g>
</g>
<g>
</g>
<g>
</g>
<g>
</g>
<g>
</g>
<g>
</g>
<g>
</g>
<g>
</g>
<g>
</g>
<g>
</g>
</svg>
